# xmcd
#
# Track frame offsets:
# 150
# 12955
# 28744
# 46704
# 62438
# 77034
# 93064
# 107495
# 121054
# 136590
#
# Disc length: 2068 seconds
#
#
# Revision: 0
# Processed by: cddbd v1.5PL3 Copyright (c) Steve Scherf et al.
# Submitted via: FreeRIP 2.53 
#
DISCID=6508120a
DTITLE=Tillis, Pam - Put Yourself In My Place
DYEAR=1900
DGENRE=
TTITLE0=Put Yourself In My Place
TTITLE1=Melancholy Child
TTITLE2=Maybe It Was Memphis
TTITLE3=Blue Rose Is
TTITLE4=Don't Tell Me What To Do
TTITLE5=One Of Those Things
TTITLE6=Draggin' My Chains
TTITLE7=Ancient History
TTITLE8=I've Seen Enough To Know
TTITLE9=Already Fallen
EXTD=
EXTT0=
EXTT1=
EXTT2=
EXTT3=
EXTT4=
EXTT5=
EXTT6=
EXTT7=
EXTT8=
EXTT9=
PLAYORDER=
